<?xml version="1.0" encoding="utf-8"?>
<!-- Generator: Adobe Illustrator 22.0.0, SVG Export Plug-In . SVG Version: 6.00 Build 0)  -->
<svg version="1.1" id="Capa_1" xmlns="http://www.w3.org/2000/svg" xmlns:xlink="http://www.w3.org/1999/xlink" x="0px" y="0px"
	 viewBox="0 0 512 512" style="enable-background:new 0 0 512 512;" xml:space="preserve">
<style type="text/css">
	.st0{fill:#3C55F0;}
</style>
<g>
	<g>
		<path class="st0" d="M504.5,421.9c-4.1,0-7.5,3.4-7.5,7.5v50.1c0,0.7-0.6,1.3-1.3,1.3h-28.5V371.2c0-4.1-3.4-7.5-7.5-7.5
			s-7.5,3.4-7.5,7.5v109.6h-55.1l14.9-16.4c2.3-2.5,3.4-6.1,2.9-9.6c0-0.1,0-0.1,0-0.2l-16.8-99l3.1-4.6l0.8,0.6
			c2.7,2,6.3,2.7,9.6,1.8c3.3-0.8,6.1-3.1,7.7-6.1v0l17-34.2l38.9,15.1c1.5,0.7,21.6,9.9,21.6,33.8v32.5c0,4.1,3.4,7.5,7.5,7.5
			s7.5-3.4,7.5-7.5v-32.5c0-34.6-29.7-47.2-30.9-47.7c0,0-0.1,0-0.1-0.1l-66.3-25.7v-13.7c10.4-8.3,17.6-20.3,19.8-34
			c5.2-0.6,10-2.7,13.9-6.1c5.7-4.9,9-12,9-19.6c0-6-2.1-11.8-5.8-16.3v-20.2c0-39.6-32.2-71.8-71.8-71.8
			c-17.8,0-34.1,6.5-46.6,17.3c-0.2-5.7-2.2-11.2-5.8-15.6V88.1c0-39.6-32.2-71.8-71.8-71.8c-39.6,0-71.8,32.2-71.8,71.8v20.8
			c-3.6,4.3-5.6,9.5-5.8,15c-8-6.8-17.6-12-28.3-14.8c-4-1.1-8.1,1.3-9.2,5.3s1.3,8.1,5.3,9.2c24.9,6.6,42.3,29.2,42.3,54.9v11.2
			c-0.3-0.1-1.4-0.2-1.4-0.3c-0.1-2.1-0.6-3.4-1.8-5.1c-1.9-2.8-5.4-6.2-16.5-18.1c-4-4.2-10.3-5-15.2-1.9
			c-19,12.4-42.1,18.7-63.5,17.5c-7-0.4-11.3,2.7-13.2,7.7c-0.2,0-2,0.4-2.1,0.4v-11.5c0-24.9,16.6-47.2,40.4-54.4
			c4-1.2,6.2-5.4,5-9.3c-1.2-4-5.4-6.2-9.3-5c-14.5,4.4-27.5,13.4-36.6,25.5c-9.5,12.5-14.5,27.5-14.5,43.2v20.8
			c-3.8,4.5-5.8,10-5.8,15.8c0,12.8,9.5,24,22.9,25.7c2.2,13.4,9.5,26.2,20.9,34.9v12.8l-66.2,25.7c0,0-0.1,0-0.1,0.1
			c-1.3,0.5-31,13.1-31,47.7v117.6c0,9,7.3,16.3,16.3,16.3h231c3.2,0,6.2-1,8.8-2.6c2.5,1.6,5.5,2.6,8.8,2.6h231
			c9,0,16.3-7.3,16.3-16.3v-50.1C512,425.3,508.6,421.9,504.5,421.9z M75.7,225.3c-4.4-1.6-7.2-5.7-7.2-10.2c0-4.4,3.2-8,7.2-9.8
			V225.3z M422.4,307.5L407.7,337c0,0-16.4-11.6-16.6-11.8c7.1-8.7,3.7-4.6,18.4-22.7L422.4,307.5z M380.2,314.8l-19.4-23.9v-7.2
			c6.3,2.2,13.1,3.2,19.5,3.2c0,0,0,0,0,0h0c6.6,0,13.3-1.3,19.3-3.5v7.6L380.2,314.8z M389,342.2l-2.8,4.2h-12.1l-2.8-4.2l8.8-6.3
			L389,342.2z M256,224.4l-19.4-23.9v-7.2c6.3,2.2,13.1,3.2,19.5,3.2c0,0,0,0,0,0h0c6.6,0,13.3-1.3,19.3-3.5v7.6L256,224.4z
			 M264.8,251.8l-2.8,4.2h-12.1l-2.8-4.2l8.8-6.3L264.8,251.8z M196.9,149.6c1.2,0.3,2.5,0.6,3.8,0.7c2.2,13.4,9.5,26.2,20.9,34.9
			V198l-15.3,5.9c-0.9-1.9-2-3.6-3.3-5.2v-20.2C203,168.3,200.8,158.5,196.9,149.6z M295.8,141.7c0,22-17.9,39.8-39.8,39.8
			c-24.7,0-41.1-19.1-41.1-39.8v-35.1c23.7,0.9,48.3-6.1,68.4-18.6c6.8,7.3,10.8,11.5,12.5,13.4C295.8,120,295.8,127.3,295.8,141.7z
			 M310.1,150.3c1.3-0.2,2.5-0.4,3.7-0.7c-3.9,8.8-6.1,18.6-6.1,28.9v20.8c-1.2,1.4-2.1,2.8-3,4.4l-14.5-5.6v-13.7
			C300.7,176,308,164,310.1,150.3z M226.7,212.1l18.4,22.7l-12.6,8.9c0,0,0,0,0,0l-4,2.8l-14.7-29.5L226.7,212.1z M273.2,226.9
			l12-14.8l12.9,5l-14.7,29.5l-4-2.8c0,0,0,0,0,0l-12.6-8.9L273.2,226.9z M277,260.5l0.8,0.6c2.8,2,6.3,2.6,9.6,1.8
			c3.3-0.8,6.1-3.1,7.7-6.1v0l12.7-25.4c4.3,5.4,10.6,8.6,17.1,9.4c2.3,14.3,10,26.6,20.9,34.9v12.8l-63.8,24.7l-8.1-48L277,260.5z
			 M351,302.5l18.4,22.7c-8,5.7-16.1,11.5-16.6,11.8l-14.7-29.5L351,302.5z M420.1,232.1c0,21.4-17.4,39.8-39.8,39.8
			c-25.5,0-41.1-20-41.1-39.8V197c23.5,0.9,48.1-6,68.4-18.6c6.8,7.3,10.8,11.5,12.5,13.4C420.1,210.5,420.1,217.7,420.1,232.1z
			 M442.3,215c0,4.6-2.8,8.6-7.2,10.2v-20.4C439.6,206.5,442.3,210.7,442.3,215z M322.8,178.5c0-31.3,25.5-56.8,56.8-56.8
			c31.3,0,56.8,25.5,56.8,56.8v11.2c-0.3-0.1-1.3-0.2-1.4-0.3c-0.1-2.1-0.6-3.4-1.8-5.1c-2-2.8-5.4-6.2-16.5-18.1
			c-3.9-4.2-10.2-5.1-15.2-1.9c-18.5,12.1-41.8,18.9-64,17.4c-6.2-0.4-10.8,2.6-12.6,7.7c-0.2,0-2,0.4-2.1,0.4L322.8,178.5
			L322.8,178.5z M324.2,205.3v20c-4.4-1.6-7.2-5.7-7.2-10.2C317,210.6,320.2,207,324.2,205.3z M318,124.6c0,3.2-1.4,6.1-3.8,8.2
			c-1,0.9-2.2,1.6-3.5,2v-20.4C315.3,116.1,318,120.2,318,124.6z M255.4,31.2c31.3,0,56.8,25.5,56.8,56.8v11.2
			c-0.3-0.1-1.3-0.2-1.4-0.3c-0.1-2.3-0.8-3.7-2.1-5.5c-2-2.7-5.7-6.5-16.1-17.7c-3.9-4.2-10.3-5-15.2-1.9
			c-19.5,12.8-43.2,19-64.6,17.4c-5.3-0.4-10.2,2.8-12,7.7c-0.2,0-2,0.4-2.1,0.4V88.1h0C198.6,56.7,224.1,31.2,255.4,31.2z
			 M200,114.9v20c-4.4-1.6-7.2-5.7-7.2-10.2C192.7,120.2,195.9,116.6,200,114.9z M186.6,204.9c4.2,1.5,6.9,5.2,7.2,9.5
			c0.3,4.8-2.6,9.2-7.2,10.9V204.9z M185.9,240.8c7.1-0.9,13.6-4.6,17.8-10.3l13.1,26.3c0,0,0,0,0,0c1.5,3.1,4.3,5.3,7.7,6.1
			c3.3,0.8,6.8,0.2,9.6-1.8l0.8-0.6l3.1,4.6l-8.1,48l-63.8-24.7v-13.7h0C176.7,266.2,183.8,254.1,185.9,240.8z M131.7,314.8
			l-19.4-23.9v-7.2c6.3,2.2,13.1,3.2,19.5,3.2c0,0,0,0,0,0c6.7,0,13.4-1.3,19.3-3.5v7.6L131.7,314.8z M140.5,342.2l-2.8,4.2h-12.1
			l-2.8-4.2l8.8-6.3L140.5,342.2z M161,302.5l12.9,5L159.2,337l-4-2.8c0,0,0,0,0,0l-12.6-8.9L161,302.5z M90.7,232.1V197
			c23.8,1,48.4-6.2,68.4-18.6c6.7,7.2,10.8,11.5,12.5,13.4c0,18.7,0,25.9,0,40.3c0,21.8-17.8,39.8-39.8,39.8
			C107.4,271.9,90.7,253,90.7,232.1z M102.5,302.5l18.4,22.7l-12.6,8.9c0,0,0,0,0,0l-4,2.8l-14.7-29.5L102.5,302.5z M59.8,480.8
			V371.2c0-4.1-3.4-7.5-7.5-7.5s-7.5,3.4-7.5,7.5v109.6H16.3c-0.7,0-1.3-0.6-1.3-1.3V361.9c0-24.1,20.3-33.3,21.6-33.8L75.5,313
			l17.1,34.2c0,0,0,0,0,0c1.5,3.1,4.3,5.3,7.7,6.1c3.3,0.8,6.8,0.2,9.6-1.8l0.8-0.6l3.1,4.6l-16.8,99c0,0.1,0,0.1,0,0.2
			c-0.5,3.5,0.6,7.1,2.9,9.6l14.9,16.4L59.8,480.8L59.8,480.8z M112.1,455.5l15.9-94.1h7.5l15.9,94.1l-19.7,21.6L112.1,455.5z
			 M248.5,479.5c0,0.7-0.6,1.3-1.3,1.3h-28.5V371.2c0-4.1-3.4-7.5-7.5-7.5s-7.5,3.4-7.5,7.5v109.6h-55.1l14.9-16.4
			c2.3-2.5,3.4-6.1,2.9-9.6c0-0.1,0-0.1,0-0.2l-16.8-99l3.1-4.6l0.8,0.6c2,1.4,4.4,2.2,6.8,2.2c4.4,0,8.5-2.5,10.5-6.5v0l17-34.2
			l38.9,15.1c11.4,4.9,21.6,17.7,21.6,33.8L248.5,479.5L248.5,479.5z M256,334.6c-3.1-5-7.2-9.6-12.2-13.6l8.5-50.1h7.5l8.5,50.1
			C263.1,325.1,259,329.8,256,334.6z M308.3,480.8L308.3,480.8V371.2c0-4.1-3.4-7.5-7.5-7.5s-7.5,3.4-7.5,7.5v109.6h-28.5
			c-0.7,0-1.3-0.6-1.3-1.3V361.9c0-8.9,2.8-17.1,8.8-24c4-4.6,9.2-8.2,12.9-9.8L324,313l17.1,34.2c0,0,0,0,0,0
			c1.5,3.1,4.3,5.3,7.7,6.1c3.3,0.8,6.8,0.2,9.6-1.8l0.8-0.6l3.1,4.6l-16.8,99c0,0.1,0,0.1,0,0.2c-0.5,3.5,0.6,7.1,2.9,9.6
			l14.9,16.4L308.3,480.8L308.3,480.8z M360.6,455.5l15.9-94.1h7.5l15.9,94.1l-19.7,21.6L360.6,455.5z"/>
	</g>
</g>
</svg>
