<?xml version="1.0" encoding="utf-8"?>
<!-- Generator: Adobe Illustrator 22.0.0, SVG Export Plug-In . SVG Version: 6.00 Build 0)  -->
<svg version="1.1" id="Capa_1" xmlns="http://www.w3.org/2000/svg" xmlns:xlink="http://www.w3.org/1999/xlink" x="0px" y="0px"
	 viewBox="0 0 512 512" style="enable-background:new 0 0 512 512;" xml:space="preserve">
<style type="text/css">
	.st0{fill:#3C55F0;}
</style>
<g>
	<path class="st0" d="M446,502v-90c0-55.1-44.7-100-100-100h-50v-10.8c33.9-5.2,60-34.4,60-69.2v-27.3c17.2-4.5,30-20.1,30-38.7
		s-12.8-34.3-30-38.7c0-10.4,0-95.1,0-107.3h60v56c0,5.5,4.5,10,10,10s10-4.5,10-10V10c0-5.5-4.5-10-10-10H301c-5.5,0-10,4.5-10,10
		s4.5,10,10,10h35v78.8l-80,26.7l-80-26.7V20h35c5.5,0,10-4.5,10-10s-4.5-10-10-10H86c-5.5,0-10,4.5-10,10s4.5,10,10,10h70v107.3
		c-17.2,4.5-30,20.1-30,38.7s12.8,34.3,30,38.7V232c0,34.7,26.1,63.9,60,69.2V312h-50c-58.9,0-100,48.3-100,100v90
		c0,5.5,4.5,10,10,10h360C441.5,512,446,507.5,446,502L446,502z M176,232v-36c0-5.5-4.5-10-10-10c-11,0-20-9-20-20s9-20,20-20
		c5.5,0,10-4.5,10-10v-16.1l76.8,25.6c1,0.3,2.1,0.5,3.2,0.5c1.1,0,2.1-0.2,3.2-0.5l76.8-25.6V136c0,5.5,4.5,10,10,10
		c11,0,20,9,20,20s-9,20-20,20c-5.5,0-10,4.5-10,10v36c0,27.2-22.5,49.6-50.1,50c-5.5,0.1-9.9,4.5-9.9,10v27.6l-20,40l-20-40V292
		c0-5.5-4.4-9.9-9.9-10C198.5,281.6,176,259.2,176,232z M219.8,332l27.2,54.5c1.7,3.4,5.2,5.5,8.9,5.5s7.3-2.1,8.9-5.5l27.2-54.5
		c0,0,56.7,0,58.2,0.1l-94.4,151l-94.4-151c1.5-0.1,2.9-0.1,4.4-0.1L219.8,332z M86,412c0-34.8,22.1-65.1,54.5-75.9L238,492H86V412z
		 M426,492H274l97.4-155.9c32.4,10.8,54.5,41.1,54.5,75.9V492z"/>
	<circle class="st0" cx="256" cy="10" r="10"/>
</g>
</svg>
