<svg id="Capa_1" enable-background="new 0 0 512.001 512.001" height="512" viewBox="0 0 512.001 512.001" width="512" xmlns="http://www.w3.org/2000/svg"><g><path d="m446 502.001v-90c0-55.125-44.734-100-100-100h-50v-10.836c33.868-5.23 60-34.427 60-69.164v-27.266c17.233-4.451 30-20.13 30-38.734s-12.767-34.283-30-38.734c0-10.404 0-95.087 0-107.266h60v56c0 5.523 4.478 10 10 10s10-4.477 10-10v-66c0-5.523-4.478-10-10-10h-125c-5.522 0-10 4.477-10 10s4.478 10 10 10h35v78.792l-80 26.667-80-26.667v-78.792h35c5.523 0 10-4.477 10-10s-4.477-10-10-10h-125c-5.523 0-10 4.477-10 10s4.477 10 10 10h70v107.266c-17.233 4.451-30 20.13-30 38.734s12.767 34.283 30 38.734v27.266c0 34.737 26.132 63.934 60 69.164v10.836h-50c-58.89 0-100 48.252-100 100v90c0 5.523 4.477 10 10 10h360c5.523 0 10-4.477 10-10zm-270-270v-36c0-5.523-4.477-10-10-10-11.028 0-20-8.972-20-20s8.972-20 20-20c5.523 0 10-4.477 10-10v-16.126l76.838 25.613c1.026.342 2.094.513 3.162.513s2.136-.171 3.162-.513l76.838-25.613v16.126c0 5.523 4.478 10 10 10 11.028 0 20 8.972 20 20s-8.972 20-20 20c-5.522 0-10 4.477-10 10v36c0 27.169-22.494 49.595-50.144 49.991-5.466.078-9.856 4.532-9.856 9.999v27.649l-20 40-20-40v-27.649c0-5.467-4.391-9.921-9.857-9.999-27.648-.395-50.143-22.822-50.143-49.991zm43.82 100 27.236 54.472c1.694 3.388 5.156 5.528 8.944 5.528s7.25-2.14 8.944-5.528l27.236-54.472s56.748.044 58.207.123l-94.387 151.01-94.388-151.01c1.459-.079 2.923-.123 4.388-.123zm-133.82 80c0-34.812 22.092-65.063 54.534-75.866l97.423 155.866h-151.957zm340 80h-151.957l97.423-155.867c32.44 10.8 54.534 41.053 54.534 75.867z"/><circle cx="256" cy="10" r="10"/></g></svg>