<?xml version="1.0" encoding="utf-8"?>
<!-- Generator: Adobe Illustrator 22.0.0, SVG Export Plug-In . SVG Version: 6.00 Build 0)  -->
<svg version="1.1" id="Capa_1" xmlns="http://www.w3.org/2000/svg" xmlns:xlink="http://www.w3.org/1999/xlink" x="0px" y="0px"
	 viewBox="0 0 55.3 55.3" style="enable-background:new 0 0 55.3 55.3;" xml:space="preserve">
<style type="text/css">
	.st0{fill:#3C55F0;}
</style>
<g>
	<g>
		<g>
			<path class="st0" d="M28,45.4c-9.4,0-18.7-5.3-27.5-15.6c-0.7-0.8-0.7-2-0.1-2.8c0.5-0.7,11.9-17.1,28-17.1
				c9.5,0,18.4,5.8,26.5,17.1c0.6,0.8,0.6,1.9,0,2.7C54.5,30.3,44.1,45.4,28,45.4z M5.3,28.2c7.5,8.3,15.1,12.6,22.7,12.6
				c11,0,19.3-9,22-12.5c-6.9-9.1-14.2-13.8-21.7-13.8C17.3,14.5,8.4,24.4,5.3,28.2z"/>
		</g>
		<path class="st0" d="M27.7,16.4c-6.2,0-11.2,5-11.2,11.2c0,6.2,5,11.2,11.2,11.2c6.2,0,11.2-5,11.2-11.2
			C38.9,21.4,33.9,16.4,27.7,16.4z M31.7,27.8c-2.5,0-4.5-2-4.5-4.5c0-2.5,2-4.5,4.5-4.5c2.5,0,4.5,2,4.5,4.5
			C36.2,25.8,34.2,27.8,31.7,27.8z"/>
	</g>
</g>
</svg>
