<?xml version="1.0" encoding="utf-8"?>
<!-- Generator: Adobe Illustrator 22.0.0, SVG Export Plug-In . SVG Version: 6.00 Build 0)  -->
<svg version="1.1" id="Layer_1" xmlns="http://www.w3.org/2000/svg" xmlns:xlink="http://www.w3.org/1999/xlink" x="0px" y="0px"
	 viewBox="0 0 512 512" style="enable-background:new 0 0 512 512;" xml:space="preserve">
<style type="text/css">
	.st0{fill:#3C55F0;}
</style>
<g>
	<g>
		<path class="st0" d="M163.1,183.6c-3.2-2.6-7.9-2.1-10.5,1.1c-3.2,3.9-7.4,6.1-11.9,6.1s-8.7-2.2-11.9-6.1
			c-2.6-3.2-7.3-3.7-10.5-1.1c-3.2,2.6-3.7,7.3-1.1,10.5c6,7.4,14.6,11.6,23.6,11.6s17.6-4.2,23.6-11.6
			C166.8,190.9,166.3,186.2,163.1,183.6z"/>
	</g>
</g>
<g>
	<g>
		<path class="st0" d="M105.1,137.6c-4.1,0-7.5,3.4-7.5,7.5v8.9c0,4.1,3.4,7.5,7.5,7.5s7.5-3.4,7.5-7.5v-8.9
			C112.6,140.9,109.3,137.6,105.1,137.6z"/>
	</g>
</g>
<g>
	<g>
		<path class="st0" d="M176.1,137.6c-4.1,0-7.5,3.4-7.5,7.5v8.9c0,4.1,3.4,7.5,7.5,7.5s7.5-3.4,7.5-7.5v-8.9
			C183.6,140.9,180.3,137.6,176.1,137.6z"/>
	</g>
</g>
<g>
	<g>
		<path class="st0" d="M67.5,345.8l-17.8-35.5c-1.9-3.7-6.4-5.2-10.1-3.4c-3.7,1.9-5.2,6.4-3.4,10.1l17,33.9v140.2
			c0,4.1,3.4,7.5,7.5,7.5s7.5-3.4,7.5-7.5v-142C68.3,348,68,346.9,67.5,345.8z"/>
	</g>
</g>
<g>
	<g>
		<path class="st0" d="M241.6,307c-3.7-1.9-8.2-0.4-10.1,3.4l-17.8,35.5c-0.5,1-0.8,2.2-0.8,3.4v142c0,4.1,3.4,7.5,7.5,7.5
			s7.5-3.4,7.5-7.5V351l17-33.9C246.8,313.3,245.3,308.8,241.6,307z"/>
	</g>
</g>
<g>
	<g>
		<path class="st0" d="M402.7,228c-3.2-2.6-7.9-2.1-10.5,1.1c-3.2,3.9-7.4,6.1-11.9,6.1s-8.7-2.2-11.9-6.1
			c-2.6-3.2-7.3-3.7-10.5-1.1s-3.7,7.3-1.1,10.5c6,7.4,14.6,11.6,23.6,11.6c9,0,17.6-4.2,23.6-11.6
			C406.4,235.3,405.9,230.6,402.7,228z"/>
	</g>
</g>
<g>
	<g>
		<path class="st0" d="M344.8,181.9c-4.1,0-7.5,3.4-7.5,7.5v8.9c0,4.1,3.4,7.5,7.5,7.5s7.5-3.4,7.5-7.5v-8.9
			C352.3,185.3,348.9,181.9,344.8,181.9z"/>
	</g>
</g>
<g>
	<g>
		<path class="st0" d="M415.8,181.9c-4.1,0-7.5,3.4-7.5,7.5v8.9c0,4.1,3.4,7.5,7.5,7.5s7.5-3.4,7.5-7.5v-8.9
			C423.3,185.3,419.9,181.9,415.8,181.9z"/>
	</g>
</g>
<g>
	<g>
		<path class="st0" d="M490.5,335.5l-60.9-24.3c-3.9-1.6-6.4-5.3-6.4-9.5v-18.4c4.2-2.4,8.1-5,11.9-8.1c15.2-12.3,26-29.6,30.3-48.6
			c1.4-6.3,2.2-12.9,2.2-19.4c0-43.7-31.6-50-62.2-56c-19.6-3.9-39.8-7.9-55.9-20.8c-1.8-1.4-4.1-1.9-6.3-1.5
			c-2.2,0.5-4.1,1.9-5.1,4c0,0.1-4.2,8.4-11.4,16.4c-6,6.8-15.5,15-26.3,15c-3.6,0-7.1,0.8-10.3,2.2v-12.4
			c0-49.7,40.4-90.1,90.1-90.1s90.1,40.4,90.1,90.1v17.8c0,4.1,3.4,7.5,7.5,7.5s7.5-3.4,7.5-7.5v-17.8c0-39.3-21.7-73.7-53.8-91.7
			c0.3-2,0.5-3.9,0.5-5.9c0-23.7-23.3-43-51.9-43s-51.9,19.3-51.9,43c0,2,0.2,4,0.5,5.9c-32,18-53.7,52.4-53.7,91.7v35.5
			c0,11.4,7.6,21.1,18,24.2c0.3,4.4,1,8.7,1.9,13c4.3,19,15.1,36.3,30.3,48.6c3.7,3,7.7,5.7,11.9,8.1v18.4c0,4.2-2.5,8-6.4,9.5
			L270,335.5c-13,5.2-21.5,17.6-21.5,31.7v44.1c0,2,0.8,3.9,2.2,5.3c1.4,1.4,3.3,2.2,5.3,2.2c0,0,0,0,0,0h1.4v72.4
			c0,4.1,3.4,7.5,7.5,7.5s7.5-3.4,7.5-7.5v-72.4h20.5v72.4c0,4.1,3.4,7.5,7.5,7.5s7.5-3.4,7.5-7.5v-97.6c0-4.1-3.4-7.5-7.5-7.5
			s-7.5,3.4-7.5,7.5v10.3h-28c0,0,0,0,0,0h-1.4v-36.6c0-7.9,4.7-14.8,12-17.8l47.3-18.9c6.3,10.6,24.1,37,54,52
			c1.1,0.5,2.2,0.8,3.4,0.8c1.1,0,2.3-0.3,3.4-0.8c29.9-15,47.8-41.3,54-52l47.3,18.9c7.3,2.9,12,9.9,12,17.8v36.6h-1.4h-28v-10.3
			c0-4.1-3.4-7.5-7.5-7.5s-7.5,3.4-7.5,7.5v97.6c0,4.1,3.4,7.5,7.5,7.5s7.5-3.4,7.5-7.5v-72.4h20.5v72.4c0,4.1,3.4,7.5,7.5,7.5
			s7.5-3.4,7.5-7.5v-72.4h1.4c4.1,0,7.5-3.4,7.5-7.5v-44.1C512,353.2,503.6,340.7,490.5,335.5z M380.3,28.3
			c20,0,36.3,12.1,36.8,27.2c-11.5-4.3-23.9-6.7-36.8-6.7s-25.4,2.4-36.8,6.7C344,40.4,360.3,28.3,380.3,28.3z M334.8,263.5
			c-12.6-10.2-21.5-24.5-25.1-40.2c-1.2-5.2-1.8-10.7-1.8-16.1c0-4.1-3.4-7.5-7.5-7.5c-5.7,0-10.3-4.6-10.3-10.3s4.6-10.3,10.3-10.3
			c22.7,0,39.2-20.6,46.7-32.1c17.5,11.3,37.5,15.2,55.4,18.8c33,6.5,50.2,11.4,50.2,41.3c0,5.4-0.6,10.8-1.8,16.1
			c-3.6,15.7-12.5,30-25.1,40.2c-13,10.5-28.7,16.1-45.5,16.1S347.8,274,334.8,263.5z M380.3,367.3c-22.6-12.5-37.2-32.7-43.3-42.5
			c9.3-4,15.3-13,15.3-23.2v-11.7c9,3,18.4,4.6,28,4.6s19-1.6,28-4.6v11.7c0,10.2,6,19.2,15.3,23.2
			C417.4,334.6,402.9,354.8,380.3,367.3z"/>
	</g>
</g>
<g>
	<g>
		<path class="st0" d="M256.9,274.2l-48.7-14.6l-8.1-12.2c-1.2-1.8-3.1-3-5.2-3.3c-0.8-0.1-1.7-0.1-2.5,0.1v-11.1
			c19.9-14.7,33.4-37.7,35.3-63.8c10.4-3.1,18-12.8,18-24.2c0-7.4-3.3-14.4-8.9-19.1V74.1c0-14.2-7.2-27.5-19-35.5
			c-3.9-14.8-17.2-25.3-32.9-25.3h-71c-38.4,0-69.6,31.2-69.6,69.6v43c-5.6,4.8-8.9,11.7-8.9,19.1c0,11.4,7.6,21.1,18,24.2
			c1.9,26.1,15.4,49.1,35.3,63.8v11.1c-0.8-0.1-1.6-0.2-2.5-0.1c-2.1,0.3-4,1.5-5.2,3.3L73,259.6l-48.7,14.6
			C9.8,278.6,0,291.7,0,306.9v184.3c0,4.1,3.4,7.5,7.5,7.5s7.5-3.4,7.5-7.5V306.9c0-8.5,5.5-15.9,13.6-18.3l33.5-10.1
			c0.1,1.6,0.6,3.1,1.6,4.4l30.1,37.7c3.2,4.1,8,6.2,12.8,6.2c3.4,0,6.9-1.1,9.8-3.3l16.6-12.5v180.3c0,4.1,3.4,7.5,7.5,7.5
			s7.5-3.4,7.5-7.5V310.9l16.6,12.5c3,2.2,6.4,3.3,9.8,3.3c4.8,0,9.5-2.1,12.8-6.2l30.1-37.7c1-1.3,1.6-2.8,1.6-4.4l33.5,10.1
			c8.2,2.4,13.6,9.8,13.6,18.3c0,4.1,3.4,7.5,7.5,7.5s7.5-3.4,7.5-7.5C281.3,291.7,271.5,278.6,256.9,274.2z M68.3,162.8
			c0-4.1-3.4-7.5-7.5-7.5c-5.7,0-10.3-4.6-10.3-10.3c0-3.6,1.9-6.9,5.1-8.8c0.2-0.1,0.3-0.2,0.5-0.3c1.4-0.7,3-1.1,4.6-1.1h10.5
			c7.8,0,14.5-5.5,16.1-13.2l5.5-27.3c0.1-0.4,0.3-0.7,0.6-0.9c0.2-0.2,0.7-0.3,1.2-0.1c13.3,3.9,29.3,5.9,46.1,5.9
			c21.6,0,41.5-3.4,56.1-9.5c3.8-1.6,5.6-6,4-9.8c-1.6-3.8-6-5.6-9.8-4c-12.6,5.3-31,8.3-50.4,8.3c-15.2,0-30.1-1.9-41.9-5.3
			c-4.4-1.3-9.3-0.7-13.2,1.7C81.7,83,78.9,87,78,91.4l-5.5,27.3c-0.1,0.6-0.7,1.1-1.3,1.1H60.8c-0.5,0-0.9,0-1.4,0V82.9
			c0-30.1,24.5-54.6,54.6-54.6h71c9.4,0,17.3,6.8,18.8,16.1c0.4,2.3,1.7,4.2,3.7,5.4c8.9,5,14.4,14.3,14.4,24.3v55.7
			c0,2.7,1.4,5.1,3.7,6.5c3.2,1.9,5.1,5.2,5.1,8.8c0,5.7-4.6,10.3-10.3,10.3c-4.1,0-7.5,3.4-7.5,7.5c0,39.9-32.5,72.4-72.4,72.4
			S68.3,202.7,68.3,162.8z M107.5,311.4c-0.6,0.4-1.4,0.3-1.9-0.2l-26.7-33.4L89,262.7l39.6,33L107.5,311.4z M140.6,286.2
			l-36.9-30.7V242c11.2,5.2,23.7,8.2,36.9,8.2s25.7-2.9,36.9-8.2v13.4L140.6,286.2z M175.6,311.2c-0.5,0.6-1.3,0.7-1.9,0.2l-21-15.8
			l39.6-33l10.1,15.1L175.6,311.2z"/>
	</g>
</g>
<g>
	<g>
		<path class="st0" d="M114.1,368.3L114.1,368.3c-4.2,0-7.5,3.4-7.5,7.5s3.4,7.5,7.5,7.5s7.5-3.4,7.5-7.5S118.2,368.3,114.1,368.3z"
			/>
	</g>
</g>
<g>
	<g>
		<path class="st0" d="M114.1,439.3L114.1,439.3c-4.2,0-7.5,3.4-7.5,7.5s3.4,7.5,7.5,7.5s7.5-3.4,7.5-7.5S118.2,439.3,114.1,439.3z"
			/>
	</g>
</g>
<g>
	<g>
		<path class="st0" d="M114.1,403.8L114.1,403.8c-4.2,0-7.5,3.4-7.5,7.5s3.4,7.5,7.5,7.5s7.5-3.4,7.5-7.5S118.2,403.8,114.1,403.8z"
			/>
	</g>
</g>
</svg>
