<?xml version="1.0" encoding="utf-8"?>
<!-- Generator: Adobe Illustrator 22.0.0, SVG Export Plug-In . SVG Version: 6.00 Build 0)  -->
<svg version="1.1" id="Layer_1" xmlns="http://www.w3.org/2000/svg" xmlns:xlink="http://www.w3.org/1999/xlink" x="0px" y="0px"
	 viewBox="0 0 512 512" style="enable-background:new 0 0 512 512;" xml:space="preserve">
<style type="text/css">
	.st0{fill:#3C55F0;}
</style>
<g>
	<g>
		<g>
			<path class="st0" d="M50.9,445.7c1.1,0,2.3-0.2,3.4-0.7c27.2-11.9,73.2-18,136.7-18.3l6.2,12.3c2.1,4.2,7.2,5.9,11.5,3.8
				c4.2-2.1,5.9-7.2,3.8-11.4l-8.5-17.1c-1.5-2.9-4.4-4.7-7.6-4.7c-69.5,0-118.2,6.5-148.8,19.8c-4.3,1.9-6.3,6.9-4.4,11.2
				C44.5,443.8,47.6,445.7,50.9,445.7z"/>
			<path class="st0" d="M494.9,460.8h-17.1v-42.7c0-2.3-0.9-4.4-2.5-6l-51.3-51.3c1.6-3.3,2.6-7,2.6-11c0-14.1-11.5-25.6-25.6-25.6
				s-25.6,11.5-25.6,25.6s11.5,25.6,25.6,25.6c3.9,0,7.6-1,11-2.6l48.8,48.8v39.1H17.1c-9.4,0-17.1,7.7-17.1,17.1v25.6
				c0,4.7,3.8,8.5,8.5,8.5s8.5-3.8,8.5-8.5v-25.6h477.9v25.6c0,4.7,3.8,8.5,8.5,8.5s8.5-3.8,8.5-8.5v-25.6
				C512,468.5,504.3,460.8,494.9,460.8z M401.1,358.4c-4.7,0-8.5-3.8-8.5-8.5s3.8-8.5,8.5-8.5s8.5,3.8,8.5,8.5
				S405.8,358.4,401.1,358.4z"/>
			<path class="st0" d="M121.8,255.2c6.2,16.2,26.8,68.4,41.7,90.8l1.3,2c11,16.6,29.3,44.4,91.1,44.4c61.8,0,80.1-27.8,91.1-44.4
				l1.3-2c14.9-22.4,35.5-74.6,41.7-90.8c11.1-2.8,19.4-12.9,19.4-24.8v-34.1c0-11.1-7.1-20.6-17.1-24.1V128
				c0-33.7-17.7-95.9-83.4-101.9c-0.1-4-1.5-7.3-2.9-9.7C297.8,2.8,274.3,0,256,0C104.2,0,102.4,143.6,102.4,145.1
				c0,4.7,3.8,8.5,8.5,8.5h0c4.7,0,8.5-3.8,8.5-8.5c0-5.2,1.9-128,136.5-128c24.1,0,33.8,5.2,35.7,8.3c0.3,0.4,1,1.6-0.7,4.9
				c-1.3,2.6-1.2,5.8,0.4,8.3c1.6,2.5,4.3,4,7.3,4c75.7,0,76.8,81.9,76.8,85.3v51.2c0,4.7,3.8,8.5,8.5,8.5c4.7,0,8.5,3.8,8.5,8.5
				v34.1c0,4.7-3.8,8.5-8.5,8.5c-3.6,0-6.7,2.2-8,5.5c-0.2,0.7-25.4,67.6-41.8,92.1l-1.4,2.1c-10.2,15.5-24.2,36.8-76.8,36.8
				c-52.6,0-66.6-21.2-76.8-36.8l-1.4-2.1c-16.3-24.5-41.5-91.5-41.8-92.1c-1.2-3.3-4.4-5.5-8-5.5c-4.7,0-8.5-3.8-8.5-8.5v-34.1
				c0-2.3,0.9-4.4,2.4-5.9c3.1,7,9.4,13.2,20,14.3l29.2,21.9c2.3,16.6,16.4,29.5,33.7,29.5h17.1c18.8,0,34.1-15.3,34.1-34.1
				c0,18.8,15.3,34.1,34.1,34.1h17.1c17.2,0,31.4-12.9,33.7-29.5l31.2-23.4c3.8-2.8,4.5-8.2,1.7-11.9c-2.8-3.8-8.2-4.5-11.9-1.7
				l-21.8,16.3c-3.3-10.4-12.9-18-24.3-18h-34.1c-14.1,0-25.6,11.5-25.6,25.6c0-14.1-11.5-25.6-25.6-25.6h-34.1
				c-11.5,0-21.1,7.6-24.3,18l-16.3-12.2c6.7-16.2,12.8-40.2,14.5-57.1c26.9-0.5,104.7-3.8,139.3-25.4c7.9,30.3,33,55.8,34.3,57.1
				c3.3,3.3,8.7,3.3,12.1,0c3.3-3.3,3.3-8.7,0-12.1c-0.3-0.3-31.6-32-31.6-62.2c0-3.8-2.6-7.2-6.3-8.2c-3.7-1-7.6,0.5-9.6,3.8
				c-12.4,20.7-93,30-146.3,30c-4.7,0-8.5,3.8-8.5,8.5c0,13.9-6.5,41.5-13.5,58.5c-2.7-1.6-3.5-4.7-3.6-7.3c0-4.7-3.8-8.5-8.5-8.5
				c-14.1,0-25.6,11.5-25.6,25.6v34.1C102.4,242.4,110.7,252.5,121.8,255.2z M273.1,213.3c0-4.7,3.8-8.5,8.5-8.5h34.1
				c4.7,0,8.5,3.8,8.5,8.5v8.5c0,9.4-7.7,17.1-17.1,17.1h-17.1c-9.4,0-17.1-7.7-17.1-17.1L273.1,213.3L273.1,213.3z M187.7,213.3
				c0-4.7,3.8-8.5,8.5-8.5h34.1c4.7,0,8.5,3.8,8.5,8.5v8.5c0,9.4-7.7,17.1-17.1,17.1h-17.1c-9.4,0-17.1-7.7-17.1-17.1V213.3z"/>
			<path class="st0" d="M298.7,307.2c0-4.7-3.8-8.5-8.5-8.6c-0.2,0-15.4-0.2-30.3-7.6c-2.4-1.2-5.2-1.2-7.6,0
				c-14.9,7.5-30.2,7.6-30.3,7.6c-4.7,0-8.5,3.8-8.5,8.5s3.8,8.5,8.5,8.5c0.7,0,16.8-0.1,34.1-7.7c17.3,7.6,33.4,7.7,34.1,7.7
				C294.8,315.7,298.6,311.9,298.7,307.2z"/>
			<path class="st0" d="M315.7,410c-3.2,0-6.1,1.8-7.6,4.7l-8.5,16.7c-2.1,4.2-0.5,9.3,3.7,11.5c1.2,0.6,2.6,0.9,3.9,0.9
				c3.1,0,6.1-1.7,7.6-4.7L321,427c46.6,0.1,84.2,3.6,111.7,10.4c4.6,1.1,9.2-1.7,10.3-6.2c1.1-4.6-1.7-9.2-6.2-10.3
				C406.9,413.5,366.3,409.7,315.7,410z"/>
			<path class="st0" d="M247.5,418.1v17.1c0,4.7,3.8,8.5,8.5,8.5c4.7,0,8.5-3.8,8.5-8.5v-17.1c0-4.7-3.8-8.5-8.5-8.5
				S247.5,413.4,247.5,418.1z"/>
			<path class="st0" d="M247.5,324.3c-4.7,0-8.5,3.8-8.5,8.5s3.8,8.5,8.5,8.5h17.1c4.7,0,8.5-3.8,8.5-8.5s-3.8-8.5-8.5-8.5H247.5z"
				/>
		</g>
	</g>
</g>
</svg>
