<?xml version="1.0" encoding="utf-8"?>
<!-- Generator: Adobe Illustrator 22.0.0, SVG Export Plug-In . SVG Version: 6.00 Build 0)  -->
<svg version="1.1" id="Layer_1" xmlns="http://www.w3.org/2000/svg" xmlns:xlink="http://www.w3.org/1999/xlink" x="0px" y="0px"
	 viewBox="0 0 512 512" style="enable-background:new 0 0 512 512;" xml:space="preserve">
<style type="text/css">
	.st0{fill:#3C55F0;}
</style>
<g id="XMLID_996_">
	<g id="XMLID_41_">
		<path id="XMLID_4218_" class="st0" d="M312.9,143.4c2,2,4.5,2.9,7.1,2.9s5.1-1,7.1-2.9c3.9-3.9,3.9-10.2,0-14.1l-0.1-0.1
			c-3.9-3.9-10.2-3.9-14.1,0c-3.9,3.9-3.9,10.2,0,14.1L312.9,143.4z"/>
		<path id="XMLID_4221_" class="st0" d="M474.2,238l34.9-34.9c2.9-2.9,3.7-7.2,2.2-10.9c-1.5-3.7-5.2-6.2-9.2-6.2h-72.3
			c-9.4-38.7-29.3-73.9-57.6-102.2C331,42.7,276.2,20,218,20S105,42.7,63.9,83.9C22.7,125,0,179.8,0,238s22.7,113,63.9,154.1
			c12.2,12.2,25.7,22.8,40.1,31.7l-30.1,53.2c-1.8,3.1-1.7,6.9,0.1,10c1.8,3.1,5.1,5,8.6,5H134c3.6,0,6.9-1.9,8.7-5.1l21.3-37.6
			c17.4,4.4,35.5,6.7,54,6.7s36.6-2.3,54-6.7l21.3,37.6c1.8,3.1,5.1,5.1,8.7,5.1h51.5c3.6,0,6.8-1.9,8.6-5c1.8-3.1,1.8-6.9,0.1-10
			l-30.1-53.2c14.4-8.9,27.8-19.5,40.1-31.7c28.3-28.3,48.2-63.6,57.6-102.2H502c4,0,7.7-2.4,9.2-6.2c1.5-3.7,0.7-8-2.2-10.9
			L474.2,238z M455.9,228h-69.8l21.9-21.9h69.8L455.9,228z M128.2,472H99.7l21.8-38.5c7.5,3.7,15.1,7,23,9.8L128.2,472z M336.3,472
			h-28.5l-16.2-28.7c7.8-2.8,15.5-6.1,23-9.8L336.3,472z M358,378c-13.2,13.2-28,24.3-43.8,33.2c-0.2,0.1-0.4,0.2-0.6,0.3
			c-0.1,0.1-0.2,0.1-0.3,0.2c-12.2,6.7-25,12.1-38.3,16.1c-0.5,0.1-1,0.3-1.6,0.5c-17.8,5.1-36.3,7.8-55.3,7.8s-37.6-2.7-55.3-7.8
			c-0.5-0.2-1-0.3-1.6-0.5c-13.3-4-26.2-9.4-38.3-16.1c-0.1-0.1-0.2-0.2-0.3-0.2c-0.2-0.1-0.4-0.2-0.6-0.3
			c-15.9-8.9-30.6-20-43.8-33.2c-37.4-37.4-58-87.1-58-140S40.6,135.4,78,98s87.1-58,140-58s102.6,20.6,140,58
			c24.6,24.6,42.1,54.8,51.1,88.1h-5.2c-2.7,0-5.2,1.1-7.1,2.9l-26.5,26.5c-2.7-18.2-8.6-35.9-17.4-51.9c-2.7-4.8-8.8-6.6-13.6-3.9
			c-4.8,2.7-6.6,8.8-3.9,13.6c9.5,17.2,14.8,35.9,16.2,54.7h-44.1c-2.2-20.3-11.2-39-25.8-53.6c-17-17-39.6-26.4-63.6-26.4
			s-46.6,9.4-63.6,26.4c-17,17-26.4,39.6-26.4,63.6s9.4,46.6,26.4,63.6c17,17,39.6,26.4,63.6,26.4s46.6-9.4,63.6-26.4
			c14.6-14.6,23.6-33.4,25.8-53.6h44c-2.4,31.3-15.6,61.6-38.7,84.8c-25.3,25.3-59,39.2-94.8,39.2s-69.4-13.9-94.8-39.2
			C97.9,307.4,84,273.8,84,238s13.9-69.4,39.2-94.8c42-42,107.6-51.3,159.5-22.6c4.8,2.7,10.9,0.9,13.6-3.9
			c2.7-4.8,0.9-10.9-3.9-13.6c-28.6-15.8-62.4-22.1-95-17.7c-33.7,4.5-64.2,19.6-88.3,43.7C80,158.2,64,196.9,64,238
			s16,79.8,45.1,108.9C138.2,376,176.9,392,218,392s79.8-16,108.9-45.1c23.6-23.6,38.6-53.5,43.5-86.4l26.5,26.5
			c1.9,1.9,4.4,2.9,7.1,2.9h5.2C400.1,323.2,382.6,353.4,358,378z M250.7,219.1c-2.8-4.8-8.9-6.4-13.7-3.7l-24,13.9
			c-3.1,1.8-5,5.1-5,8.7s1.9,6.9,5,8.7l24,13.9c1.6,0.9,3.3,1.3,5,1.3c3.5,0,6.8-1.8,8.7-5c1.6-2.8,1.7-6.1,0.6-8.9h36.1
			c-2.1,14.9-9,28.7-19.8,39.5l0,0C254.3,300.7,236.7,308,218,308s-36.3-7.3-49.5-20.5C155.3,274.3,148,256.7,148,238
			s7.3-36.3,20.5-49.5c13.2-13.2,30.8-20.5,49.5-20.5s36.3,7.3,49.5,20.5c10.8,10.8,17.7,24.6,19.8,39.5h-36.1
			C252.4,225.2,252.3,222,250.7,219.1z M408.1,269.9L386.1,248h69.8l21.9,21.9H408.1z"/>
	</g>
</g>
</svg>
